<svg width="254" height="255" viewBox="0 0 254 255" fill="none" xmlns="http://www.w3.org/2000/svg">
<path fill-rule="evenodd" clip-rule="evenodd" d="M119.387 30.5587C45.7036 36.6236 5.08774 118.94 45.3708 180.568C86.0016 242.726 180.105 237.318 213.467 170.909C247.072 104.02 193.727 24.4408 119.387 30.5587ZM134.989 35.7938C135.089 36.1731 135.254 37.6951 135.357 39.1741L135.546 41.8653L134.781 41.862C134.117 41.8587 133.908 41.6318 133.188 40.1363C131.656 36.9531 125.678 35.239 123.872 37.4665C123.381 38.0727 123.148 42.8474 123.557 43.914C124.276 45.7855 128.322 43.0677 128.352 40.6928C128.371 39.1393 129.695 40.2208 129.872 41.9349C130.281 45.9213 129.951 49.7321 129.196 49.7321C128.665 49.7321 128.481 49.5533 128.348 48.9041C127.949 46.9647 127.06 46.1614 124.976 45.8584L123.665 45.6679V49.2253C123.665 53.9272 123.721 54.0117 126.806 54.0117C131.172 54.0117 133.398 52.5195 134.098 49.121C134.281 48.2399 134.438 48.0627 135.102 47.9849L135.892 47.8938L135.745 51.5191C135.663 53.5132 135.534 55.2074 135.456 55.2853C135.379 55.3631 131.018 55.4989 125.765 55.59L116.212 55.754V55.0501C116.212 54.5135 116.392 54.3015 116.97 54.1574C118.446 53.7864 118.421 53.9355 118.421 45.8219V38.2532L117.744 37.5742C117.371 37.2016 116.811 36.8968 116.502 36.8968C116.083 36.8968 115.937 36.718 115.937 36.2079C115.937 35.3599 114.937 35.4758 124.218 35.2489C135.2 34.9806 134.769 34.9591 134.989 35.7938ZM109.007 36.9664C109.205 37.4964 109.092 37.6686 108.242 38.1472C106.828 38.9405 106.803 38.7782 109.71 47.8872C112.744 57.4035 112.663 56.9348 111.353 57.2959C110.362 57.5691 110.298 57.5327 102.177 51.9464C97.6792 48.8527 93.9661 46.3552 93.9247 46.395C93.7972 46.5225 97.1559 56.847 97.6577 57.8706C98.0883 58.7516 98.244 58.8444 99.3288 58.8643C100.46 58.8841 101.016 59.2435 101.026 59.959C101.031 60.2521 94.5143 62.5012 94.3106 62.276C93.8585 61.7808 93.8634 60.8914 94.3189 60.7308C96.2268 60.0517 96.2036 59.6377 93.8386 52.2379C91.2699 44.1972 91.2781 44.2121 89.7462 44.2121C88.6101 44.2121 87.5783 43.2747 88.2772 42.8756C88.6929 42.6388 94.0986 41.0389 94.4497 41.0488C94.6534 41.0555 97.8631 43.1538 101.583 45.7126C105.303 48.2714 108.386 50.2538 108.438 50.118C108.545 49.8265 105.829 41.5341 105.251 40.3913C104.89 39.6759 104.743 39.6146 103.622 39.704C102.525 39.7901 102.371 39.7305 102.229 39.1641C102.025 38.3559 101.777 38.5016 105.309 37.3523C108.936 36.1731 108.721 36.1946 109.007 36.9664ZM153.739 39.2221C158.307 40.6315 162.096 41.8372 162.159 41.9001C162.326 42.0674 160.908 48.0346 160.63 48.331C160.263 48.7235 158.976 48.0379 159.163 47.5493C159.473 46.7444 158.691 44.0598 157.878 43.1323C156.329 41.3701 151.583 39.8547 150.75 40.8584C150.223 41.4943 148.505 46.9349 148.754 47.1866C149.865 48.3178 152.803 47.5394 153.8 45.8484C154.348 44.9193 155.193 44.6063 155.557 45.1959C155.728 45.4741 153.33 53.6523 152.954 54.0713C152.308 54.7917 151.664 53.9322 151.672 52.3605C151.684 50.4559 151.013 49.5135 149.282 48.9935C147.959 48.5977 148.113 48.3807 146.98 52.2296C145.877 55.9759 145.92 56.3518 147.523 57.0392C151.776 58.8626 154.921 58.3012 156.793 55.383C157.699 53.9719 157.815 53.8924 158.56 54.179C159.168 54.4125 159.14 54.5731 157.858 58.0014C156.505 61.6201 156.543 61.5671 155.523 61.1779C155.08 61.009 151.056 59.7569 146.579 58.3972C142.103 57.0358 138.333 55.8169 138.204 55.6861C137.712 55.1958 138.537 54.2949 139.335 54.4506C140.695 54.7156 140.965 54.1905 143.267 46.7858C145.857 38.4569 145.862 38.3774 143.809 37.6752C143.668 37.6272 143.628 37.3009 143.721 36.9531C143.931 36.1499 143.406 36.0306 153.739 39.2221ZM174.964 48.6672C180.296 52.2893 181.794 53.4602 182.944 54.8994C186.344 59.1574 182.636 63.9884 177.586 61.8785C176.154 61.279 176.051 61.3518 176.79 62.4399C178.116 64.3959 178.035 65.9957 176.452 69.0149C175.11 71.5737 175.764 72.8937 177.51 71.1481C178.845 69.8132 179.918 70.4823 178.85 71.9828C177.548 73.8112 175.027 74.164 173.126 72.786C170.749 71.0653 170.63 69.7403 172.517 65.9908C174.355 62.3356 174.282 61.0338 172.151 59.4075C170.837 58.4055 170.826 58.4121 168.674 61.5174C166.521 64.6261 166.397 65.0931 167.44 66.1829C168.211 66.9861 167.979 68.3111 167.124 67.9831C166.463 67.7297 158.997 62.5078 158.997 62.2992C158.997 61.8156 159.989 61.2243 160.383 61.4744C161.826 62.3853 162.692 61.38 170.501 49.7404C171.023 48.9604 170.953 48.2035 170.291 47.4996C169.819 46.9961 169.771 46.7825 170.024 46.3088C170.441 45.5271 170.122 45.3748 174.964 48.6672ZM82.8052 47.0955C83.037 47.5294 82.9592 47.7679 82.4011 48.326C81.3179 49.4075 81.038 48.755 86.0496 56.8305C89.877 62.9981 90.1933 63.3442 91.5315 62.8341C92.2685 62.5542 93.0403 62.9798 93.0221 63.6556C93.0155 63.846 84.733 69.0116 84.6501 68.8758C84.6154 68.8228 84.4183 68.5562 84.2113 68.2862C83.8784 67.8523 83.9264 67.695 84.5988 66.9927C85.6339 65.9129 85.614 65.8599 81.6078 59.3942C77.1394 52.18 77.1079 52.1435 75.7002 52.5178C74.6717 52.7927 73.9794 52.4599 73.9794 51.6914C73.9794 51.5837 80.2547 47.6056 81.5713 46.8802C82.3365 46.4579 82.4772 46.4811 82.8052 47.0955ZM174.956 52.5625C173.479 54.1508 171.698 57.1336 172.007 57.5062C174.128 60.0617 178.109 59.8994 179.415 57.2031C180.903 54.126 177.142 50.2108 174.956 52.5625ZM70.6671 61.8884C70.6671 62.7629 69.8622 63.1455 68.9795 62.69C65.3276 60.802 60.7301 63.003 60.7301 66.64C60.7301 69.9093 67.628 77.1931 71.1739 77.6684C74.6154 78.1305 76.7419 74.5465 74.7827 71.587C73.3153 69.3727 72.2835 68.8592 70.9172 69.6658C70.1736 70.1047 70.0825 70.1063 69.6635 69.6857C69.2014 69.2253 74.945 62.5675 75.8062 62.5675C76.5581 62.5675 76.7684 63.316 76.2964 64.3081C75.73 65.4972 75.7764 65.5701 79.3189 68.9222L81.7419 71.216L81.0811 71.8784C80.4286 72.531 80.407 72.5343 79.4117 72.059C78.1994 71.481 78.1762 71.4992 77.7307 73.4154C75.894 81.3186 66.3809 83.3507 60.5247 77.0904C55.1306 71.3253 56.265 64.6194 63.2839 60.7771C65.1471 59.7569 65.364 59.4754 64.8788 58.7086C64.695 58.4171 64.7894 58.119 65.2001 57.6801L65.7814 57.0623L68.2243 59.2932C69.5674 60.5204 70.6671 61.688 70.6671 61.8884ZM134.898 61.0603C190.711 68.3293 213.467 137.198 172.747 175.594C130.051 215.854 59.9782 185.737 60.0494 127.158C60.0974 87.2046 95.513 55.9295 134.898 61.0603ZM196.879 67.5227C198.697 69.5532 198.727 69.6095 198.22 70.1163C197.714 70.6231 197.684 70.6214 196.851 70.0053C195.701 69.1557 195.812 69.0845 189.378 74.8198C183.613 79.9572 183.356 80.2951 184.179 81.6151C184.466 82.0722 184.433 82.2461 183.972 82.6999C183.427 83.2365 183.408 83.2216 180.2 79.5979C177.106 76.105 176.993 75.9344 177.46 75.4574C177.929 74.9805 177.984 74.9804 178.802 75.4508C180.069 76.1779 180.474 75.9228 186.243 70.7572C191.829 65.7556 192.232 65.2322 191.481 63.9603C191.021 63.1819 191.026 63.1455 191.617 62.7298C192.203 62.319 192.283 62.3638 193.623 63.8758C194.391 64.7404 195.855 66.3816 196.879 67.5227ZM121.18 63.8626C71.4571 67.5956 45.5761 127.032 76.4869 166.505C105.334 203.344 163.755 197.186 183.971 155.176C205.398 110.644 170.673 60.1445 121.18 63.8626ZM204.693 77.6237C206.182 80.3994 206.238 80.5766 205.897 81.4196C205.7 81.9066 204.184 85.2851 202.53 88.9287C200.874 92.5723 199.448 95.7306 199.36 95.9476C199.206 96.3285 205.509 93.1685 207.841 91.6962C209.211 90.8333 209.429 90.3663 209 89.2334C208.724 88.5031 208.745 88.3259 209.151 88.0278C209.875 87.4961 209.982 87.6154 211.735 90.8929L213.368 93.9502L212.692 94.2583C212.091 94.5315 211.952 94.4752 211.435 93.7482C210.406 92.304 210.799 92.1533 198.444 98.7631C193.09 101.627 193.699 101.466 193.116 100.174L192.647 99.1357L196.692 90.2189C198.914 85.3149 200.68 81.2491 200.612 81.1811C200.546 81.1132 199.32 81.6946 197.892 82.4713C196.463 83.2481 194.115 84.4769 192.672 85.2023C189.312 86.8916 188.885 87.3404 189.312 88.725C189.587 89.6111 189.567 89.8048 189.168 90.1013C188.408 90.666 188.59 90.8979 186.115 86.2027C184.843 83.7913 185.37 82.781 187.049 84.409C188.254 85.5766 188.239 85.5816 195.71 81.6068C202.52 77.9847 202.573 77.9433 202.15 76.365C201.929 75.5286 201.958 75.2852 202.313 75.0434C203.028 74.5548 203.071 74.6012 204.693 77.6237ZM49.9203 76.8867C50.2084 77.0705 50.225 77.3504 49.9964 78.1802C49.5708 79.7171 49.6867 79.7999 58.3618 84.1258C62.6065 86.2441 66.1424 88.0377 66.2153 88.1106C66.5234 88.4186 65.4005 90.1642 64.8092 90.2967C64.4647 90.3745 60.3309 91.1944 55.6241 92.1168C50.9173 93.041 46.7653 93.8691 46.3959 93.9585C45.8494 94.0893 46.7785 94.6508 51.3644 96.9611C57.6165 100.111 57.9461 100.201 58.799 99.0032C59.4234 98.1254 59.8722 97.9797 60.3806 98.4881C61.0149 99.1224 57.7308 105.081 56.9441 104.724C56.5135 104.527 56.3495 104.28 56.4605 103.992C57.2703 101.901 57.4211 102.029 49.5029 98.0658C42.4658 94.5431 42.3168 94.5001 41.3115 95.6925C40.6954 96.4245 40.5347 96.4858 39.9402 96.2159L39.2678 95.9095L40.7832 92.9714C41.6162 91.355 42.3267 90.0003 42.3632 89.9605C42.3979 89.9208 45.8925 89.202 50.1289 88.364C54.3654 87.5243 58.0802 86.7359 58.3849 86.6101C58.8321 86.4262 58.0305 85.9294 54.1783 83.9983C48.7361 81.2706 48.8603 81.2987 47.8534 82.5607C47.2455 83.3226 47.0004 83.4567 46.5996 83.2414C45.9223 82.8787 45.9206 82.887 47.4675 79.573C48.7858 76.7509 49.122 76.3816 49.9203 76.8867ZM95.1718 84.7187C95.7266 85.3994 97.9939 100.729 97.9939 103.799C97.9939 104.911 97.8747 105.134 96.7518 106.123C93.8551 108.672 96.2549 115.565 100.039 115.565C100.265 115.565 100.889 116.405 101.429 117.43C101.967 118.455 102.711 119.619 103.078 120.018C104.864 121.943 113.771 122.46 114.455 120.677C114.786 119.813 112.871 115.825 111.727 114.995L110.609 114.185H105.564H100.52L99.9631 113.48C98.6796 111.847 98.2026 110.386 98.3251 108.463L98.4411 106.633L100.081 105.146C105.69 100.061 110.049 98.7051 116.488 100.045C120.879 100.957 123.188 102.425 124.72 105.28C125.688 107.087 127.585 108.462 130.981 109.825C132.346 110.371 135.115 111.577 137.136 112.503C139.155 113.428 140.877 114.185 140.965 114.185C141.394 114.185 144.716 116.807 145.692 117.913C148.58 121.196 150.976 126.701 152.358 133.231C152.899 135.793 154.027 138.407 154.685 138.622C155.006 138.726 159.183 138.914 163.966 139.036C175.501 139.331 178.151 139.965 181.339 143.205C184.635 146.554 182.944 152.398 178.154 154.198C174.264 155.662 165.231 155.588 160.375 154.054C157.671 153.2 150.504 148.663 150.463 147.777C150.266 143.587 141.187 143.597 139.423 147.791C139.199 148.321 138.459 148.894 136.974 149.682L134.844 150.813L128.358 150.169C115.269 148.866 110.551 147.41 110.746 144.737C110.886 142.847 114.839 141.875 120.415 142.358C121.957 142.493 123.274 142.547 123.342 142.481C123.504 142.319 122.364 139.208 121.571 137.648C121.225 136.964 120.518 135.474 120.001 134.336C117.855 129.609 115.198 128.259 106.207 127.32C104.301 127.12 104.38 126.711 105.175 132.579C105.819 137.344 106.788 141.351 107.621 142.7C108.661 144.382 108.318 145.436 107.012 144.579C105.044 143.288 104.138 140.934 103.244 134.786C102.471 129.463 101.83 127.569 100.057 125.364L99.1698 124.26L99.7064 121.683C100.324 118.715 100.47 119.013 97.6378 117.486C95.9452 116.575 95.7299 116.302 92.7968 111.373C91.621 109.397 91.3676 108.743 91.3576 107.647C91.351 106.916 91.245 105.8 91.1225 105.164C90.7995 103.501 91.0347 103.284 92.5832 103.811C95.7167 104.874 96.1506 104.5 95.7829 101.054C95.3689 97.1947 94.5938 94.2516 93.3136 91.6895C92.2818 89.626 91.1605 84.9506 91.5928 84.5183C91.8959 84.2153 94.8985 84.3842 95.1718 84.7187ZM80.2745 99.6408L81.1854 99.9704L81.2848 102.132L81.3825 104.295L79.9847 104.202C79.1301 104.146 78.5455 104.23 78.4809 104.417C78.4113 104.619 79.198 104.77 80.8012 104.863C83.2358 105.003 86.4554 105.986 86.4752 106.595C86.4802 106.746 85.7118 107.074 84.7644 107.32C83.8187 107.567 82.9062 107.91 82.7356 108.079C82.565 108.25 82.0168 108.389 81.515 108.389C79.468 108.389 80.8376 110.259 83.4345 111.007C85.2977 111.544 85.364 111.721 83.9993 112.524C83.1977 112.998 82.7306 113.091 81.8164 112.953C80.0228 112.685 80.1106 113.238 82.0102 114.199C84.039 115.222 83.8486 115.979 81.5614 115.979C80.1139 115.979 80.0046 116.342 80.8741 118.256C81.4537 119.535 81.8396 119.737 82.0649 118.877C82.1974 118.369 82.4408 118.326 85.1801 118.326C86.8131 118.326 88.0983 118.375 88.0337 118.437C87.9708 118.496 86.8926 118.942 85.6372 119.424C81.2914 121.095 80.2282 123.253 83.3252 124.122L84.8025 124.536L84.6352 125.916C84.5425 126.676 84.3918 127.575 84.2974 127.918C84.0937 128.665 84.6071 128.75 85.3375 128.089C86.4438 127.087 87.719 128.791 88.9943 132.97C89.872 135.846 89.8704 135.765 89.0241 135.553C88.0784 135.316 88.148 135.527 89.4961 136.989C90.5213 138.102 90.6024 138.281 90.1867 138.514C89.9267 138.66 89.7131 139.084 89.7131 139.455C89.7131 140.121 89.6733 140.133 87.358 140.133C85.5196 140.133 84.9698 140.222 84.8456 140.547C84.7578 140.773 84.4514 140.961 84.1632 140.961C83.8254 140.961 83.6415 141.154 83.6415 141.512C83.6415 141.959 83.4577 142.064 82.6743 142.064H81.7088V143.375C81.7104 144.677 81.7171 144.687 82.676 144.755C83.2987 144.8 83.6415 144.702 83.6448 144.48C83.6465 144.29 83.9479 143.513 84.3123 142.754L84.9781 141.375L84.9996 143.099C85.0327 145.714 85.9834 145.513 86.5398 142.774C86.9936 140.54 87.5021 140.838 87.5269 143.352L87.5484 145.515L88.1894 144.179C88.7624 142.981 90.1089 141.815 90.4832 142.191C90.5594 142.266 90.4583 143.09 90.2596 144.023C89.9399 145.533 89.9482 145.745 90.3457 145.967C92.1327 146.968 92.2636 149.241 90.5329 149.241C89.8058 149.241 89.3653 149.099 89.2642 148.834C89.1367 148.501 88.9413 148.552 88.2109 149.109C87.7174 149.485 86.621 150.031 85.773 150.325L84.2311 150.855L83.1232 148.99C81.8794 146.896 81.669 146.686 80.3855 146.255C79.3504 145.906 79.415 145.818 78.9446 148.206C78.5554 150.192 77.8632 150.381 77.1858 148.688C76.7999 147.721 76.6343 147.584 75.8459 147.575C73.2921 147.551 71.8049 144.415 71.78 139.005C71.7701 136.726 72.002 136.481 72.7622 137.97L73.36 139.144L73.5588 137.695C73.8039 135.923 74.2593 136.116 74.9649 138.289C75.7847 140.817 76.2898 140.729 76.7751 137.975C77.209 135.51 77.6793 135.75 78.4892 138.849C79.1318 141.31 79.362 141.317 79.9251 138.894C80.5379 136.257 77.9344 117.988 76.4753 114.69C76.154 113.962 75.7134 111.68 75.3657 108.935C75.0477 106.433 74.7231 104.169 74.6419 103.904C74.5459 103.586 74.6436 103.42 74.9268 103.42C75.2729 103.42 75.3607 103.081 75.3607 101.729V100.038L76.1556 100.197C76.5945 100.285 77.2769 100.439 77.6744 100.538C78.3153 100.699 78.3964 100.638 78.3964 100C78.3964 99.1854 78.8022 99.1092 80.2745 99.6408ZM145.594 101.761C145.776 104.091 146.299 105.545 146.299 103.722C146.299 102.852 148.095 99.2798 148.534 99.2798C148.671 99.2798 148.784 100.84 148.784 102.746C148.784 106.537 148.949 106.759 149.89 104.243C150.728 102.001 151.111 102.248 151.213 105.098C151.354 108.968 151.25 109.217 149.496 109.217C148.083 109.217 148.019 109.184 147.86 108.394L147.696 107.571L146.947 108.319L146.198 109.068L145.847 108.245C145.654 107.792 145.486 107.112 145.475 106.733L145.453 106.042L144.887 106.802C144.435 107.408 144.1 107.561 143.222 107.561C141.962 107.561 141.959 107.408 143.161 105.017C143.52 104.301 143.815 103.47 143.815 103.17C143.815 102.87 143.939 102.547 144.092 102.455C144.242 102.36 144.367 101.691 144.367 100.966C144.367 99.6011 144.501 99.2798 145.067 99.2798C145.287 99.2798 145.466 100.118 145.594 101.761ZM105.889 102.446C102.171 103.975 99.7577 108.857 102.355 109.598C103.073 109.801 103.453 110.197 104.15 111.466C105.306 113.573 106.386 113.738 107.543 111.986C108.514 110.522 110.276 109.464 113.521 108.399C116.084 107.557 116.212 107.478 116.212 106.733C116.212 106.302 116.288 105.754 116.379 105.514C116.513 105.164 116.344 105.076 115.538 105.076C114.279 105.076 113.31 104.578 112.085 103.303C110.485 101.64 108.516 101.367 105.889 102.446ZM211.718 103.266C216.127 104.815 218.543 109.098 217.806 114.054C217.429 116.588 217.598 117.221 218.653 117.221C219.36 117.221 219.391 118.778 218.687 118.978C217.69 119.263 212.546 120.073 212.444 119.96C211.864 119.318 212.043 118.617 212.924 118.072C219.199 114.194 216.716 107.758 209.116 108.2C200.847 108.682 196.554 112.007 199.007 116.03C200.511 118.496 206.056 118.14 205.983 115.583C205.961 114.815 206.986 114.054 207.437 114.505C207.679 114.747 209.146 123.846 208.944 123.846C208.825 123.846 208.547 123.915 208.326 124C208.07 124.099 207.72 123.803 207.348 123.172C206.649 121.988 206.418 121.969 202.059 122.754C200.337 123.064 198.762 123.254 198.56 123.177C197.858 122.907 198.138 121.681 199.004 121.232C200.244 120.591 200.239 120.389 198.924 118.776C192.321 110.669 201.413 99.6458 211.718 103.266ZM119.281 104.704C118.39 106.658 118.133 108.755 118.708 109.368C119.16 109.848 119.221 110.172 119.069 111.28C118.845 112.918 119.243 112.796 119.922 111.019C120.364 109.858 121.42 109.089 121.906 109.573C122.169 109.838 120.586 117.072 120.16 117.551C119.93 117.807 119.402 118.094 118.983 118.185C118.525 118.286 118.088 118.644 117.889 119.081C116.286 122.6 114.241 123.452 107.586 123.367C101.997 123.296 102.061 123.279 102.643 124.75C103.887 127.895 123.941 127.281 123.941 124.097C123.941 123.63 122.268 123.842 121.505 124.406C120.635 125.048 119.009 125.364 118.461 124.995C117.682 124.473 119.66 122.469 120.958 122.468C121.215 122.466 122.131 121.848 122.995 121.092C125.715 118.712 128.221 118.71 128.815 121.087C129.16 122.466 129.686 123.205 130.746 123.798C131.049 123.968 131.054 124.412 130.776 126.318L130.44 128.634L128.194 130.393L125.95 132.151L125.765 134.555C125.662 135.876 125.546 138.2 125.505 139.718C125.404 143.463 124.807 144.548 122.85 144.548C119.045 144.548 117.343 145.038 119.042 145.641C121.993 146.691 127.268 145.942 127.528 144.435C127.641 143.788 127.898 143.549 128.862 143.198C129.988 142.787 130.046 142.714 129.875 141.929C129.297 139.266 129.325 139.028 130.22 139.028C130.924 139.028 131.084 139.164 131.283 139.926C131.472 140.649 131.533 140.356 131.604 138.407C131.689 136.065 131.712 135.992 132.354 135.992C133.559 135.992 133.613 134.714 132.432 134.195C131.955 133.986 131.808 133.693 131.808 132.955C131.808 131.709 132.336 131.767 134.474 133.251C136.381 134.574 136.117 134.589 137.508 133.079C139.186 131.26 140.183 131.544 141.124 134.111C141.162 134.215 141.906 133.967 142.777 133.559C144.339 132.827 144.36 132.801 144.363 131.645C144.368 130.05 146.096 129.795 146.405 131.343C146.501 131.824 146.629 132.165 146.69 132.102C146.753 132.04 146.68 131.317 146.53 130.494C146.344 129.468 146.351 128.625 146.554 127.817C147.21 125.212 146.669 123.137 144.56 120.182C142.585 117.413 141.516 116.651 135.057 113.402C129.262 110.485 127.626 109.45 124.696 106.845C121.56 104.055 119.879 103.39 119.281 104.704ZM42.0468 104.684C43.5341 104.83 43.8935 104.952 43.7709 105.27C43.6864 105.492 43.6169 105.85 43.6169 106.065C43.6169 106.287 43.3469 106.458 42.9958 106.458C39.7149 106.466 37.5569 109.028 37.1048 113.452C36.873 115.711 37.1512 115.928 41.0912 116.552C44.3125 117.062 44.1932 117.1 44.3539 115.51C44.5162 113.914 43.7328 112.678 42.1164 111.984C40.8676 111.449 40.5496 110.323 41.6477 110.32C44.6503 110.308 50.5364 111.593 50.4618 112.243C50.389 112.86 50.22 112.961 49.0309 113.099C47.4261 113.283 46.2419 114.392 45.9421 115.997C45.6987 117.296 45.7401 117.317 49.5923 117.865C53.2475 118.385 53.6798 118.276 54.0739 116.734C55.2548 112.118 54.3356 109.217 51.2104 107.688C49.6155 106.908 48.9878 105.628 50.2002 105.628C50.8427 105.628 56.9143 106.964 57.0948 107.145C57.2173 107.267 54.5228 124.788 54.223 125.808C53.9563 126.719 52.7258 126.106 52.7258 125.063C52.7258 123.627 52.1296 123.428 44.334 122.244C36.3811 121.037 36.3165 121.039 35.8345 122.373C35.5348 123.2 34.4698 123.533 34.0641 122.927C34.0326 122.88 36.545 106.89 36.863 105.111L37.0303 104.182L38.5987 104.341C39.4615 104.429 41.0117 104.583 42.0468 104.684ZM161.034 107.988C161.203 108.43 161.275 108.448 161.491 108.106C161.707 107.764 161.75 107.776 161.753 108.182C161.765 109.51 163.343 107.809 163.462 106.34C163.582 104.879 164.241 104.667 164.242 106.088C164.242 107.113 164.681 108.162 165.696 109.566C166.217 110.285 166.077 111.357 165.521 110.916C164.782 110.333 161.485 109.929 160.221 110.267C158.076 110.842 157.427 110.393 158.818 109.298C159.276 108.939 159.524 108.38 159.656 107.415C160.075 104.376 160.162 104.225 160.514 105.924C160.69 106.772 160.923 107.7 161.034 107.988ZM106.478 105.222C107.217 105.739 107.042 106.3 106.006 106.729C104.859 107.205 103.946 106.998 103.839 106.234C103.651 104.914 105.193 104.323 106.478 105.222ZM159.746 116.946L160.841 119.016L159.827 120.673C158.729 122.466 158.055 122.86 157.745 121.885C157.512 121.151 158.184 114.356 158.459 114.662C158.565 114.78 159.143 115.807 159.746 116.946ZM164.741 116.631C165.514 117.122 164.256 126.269 163.009 129.228L162.659 130.056L162.401 129.091C162.253 128.536 161.892 128.011 161.551 127.859C161.082 127.648 160.877 127.156 160.567 125.512L160.176 123.432L161.036 122.668C161.508 122.249 162.495 121.507 163.229 121.02C163.962 120.533 164.459 120.111 164.333 120.083C164.206 120.053 163.762 119.955 163.345 119.863C162.836 119.75 162.585 119.52 162.585 119.162C162.585 118.869 162.402 118.526 162.177 118.402C161.828 118.205 161.848 118.048 162.311 117.284C162.863 116.378 163.901 116.098 164.741 116.631ZM172.21 119.084C172.354 119.654 172.553 120.712 172.652 121.434C172.811 122.59 172.944 122.796 173.745 123.13C174.675 123.519 175.91 124.916 176.215 125.923C176.352 126.375 176.773 126.544 178.406 126.804C181.009 127.218 181.811 127.595 182.01 128.501C182.098 128.902 182.243 129.487 182.334 129.803C182.57 130.626 177.916 131.426 177.356 130.659C177.01 130.187 176.39 130.023 176.382 130.403C176.369 131.068 175.887 131.347 175.294 131.03C174.792 130.762 174.59 130.788 174.155 131.183C173.479 131.794 173.49 131.936 174.241 132.269C174.579 132.418 175.107 132.913 175.413 133.369C175.951 134.165 176.051 134.197 178.043 134.197H180.113V135.025C180.113 135.745 180.004 135.863 179.285 135.929C178.83 135.971 177.573 136.192 176.491 136.423C174.063 136.939 173.075 136.643 173.075 135.396C173.075 134.381 172.354 134.349 171.9 135.343L171.568 136.073L167.008 135.901C157.008 135.522 155.688 134.821 156.006 130.056C156.124 128.306 157.242 127.867 157.802 129.351C158.116 130.182 158.124 130.186 159.075 129.788C160.268 129.29 160.377 129.402 160.379 131.138C160.38 133.11 160.839 134.611 161.438 134.611C161.705 134.611 162.048 134.737 162.199 134.887C162.384 135.073 162.682 134.526 163.096 133.24C163.903 130.734 163.769 130.76 167.207 132.453C168.84 133.256 170.269 133.957 170.383 134.01C170.496 134.063 170.59 133.902 170.59 133.654C170.59 133.407 171.041 132.791 171.592 132.286L172.594 131.368L172.104 130.086C171.723 129.086 171.655 128.384 171.794 126.878C171.973 124.957 171.972 124.95 171.281 124.95C170.466 124.95 170.438 124.672 170.874 121.078C171.286 117.678 171.7 117.062 172.21 119.084ZM157.686 122.92C158.593 123.069 158.721 123.185 158.721 123.861C158.721 125.626 157.926 125.873 154.514 125.169C152.123 124.674 152.166 123.251 154.58 122.994C155.415 122.905 156.223 122.814 156.374 122.791C156.526 122.768 157.116 122.826 157.686 122.92ZM167.601 125.131C167.879 125.383 168.106 125.749 168.106 125.944C168.106 126.164 168.55 126.332 169.279 126.383L170.451 126.469L170.531 128.884L170.612 131.299H169.772C168.962 131.299 168.934 131.257 168.934 130.053C168.934 128.947 168.835 128.746 168.05 128.269C167.238 127.776 166.468 126.209 166.453 125.02C166.448 124.536 167.003 124.589 167.601 125.131ZM134.595 127.387C136.69 128.246 137.146 128.912 135.95 129.366C134.319 129.987 133.1 129.24 132.618 127.324C132.398 126.446 132.288 126.441 134.595 127.387ZM85.5114 132.281C85.0675 132.726 86.0132 134.066 86.8876 134.23C88.0552 134.449 88.1049 134.384 87.7257 133.148C87.4275 132.175 86.1275 131.665 85.5114 132.281ZM93.302 135.61C94.2178 136.438 94.4066 136.785 94.4066 137.648C94.4066 138.461 94.5607 138.789 95.1171 139.154C95.7481 139.568 95.8078 139.743 95.6455 140.704C95.5444 141.3 95.5428 141.789 95.6421 141.789C96.1191 141.789 96.9687 141.121 97.4027 140.406L97.8863 139.611L98.6083 140.217C99.8571 141.264 99.9018 142.539 98.7077 143.039C97.8829 143.384 97.719 143.591 97.719 144.285C97.719 144.78 97.5467 145.184 97.295 145.28C96.8346 145.457 94.4033 144.346 94.0522 143.798C93.9247 143.599 93.5272 143.523 93.0801 143.614C91.399 143.948 90.1453 141.009 91.2715 139.369C91.9141 138.432 91.9621 138.17 91.8098 136.474C91.6143 134.299 91.7584 134.217 93.302 135.61ZM166.725 141.254C166.725 141.815 167.3 142.617 167.702 142.617C167.967 142.617 168.106 142.332 168.106 141.789C168.106 141.088 167.999 140.961 167.416 140.961C167.036 140.961 166.725 141.093 166.725 141.254ZM160.385 141.996C160.395 142.223 160.69 142.627 161.824 143.968C162.72 145.027 163.471 144.944 164.107 143.715C164.656 142.65 164.656 142.647 163.56 142.188C162.56 141.77 160.37 141.636 160.385 141.996ZM175.135 144.531C175.769 145.759 176.11 145.818 176.11 144.704C176.11 143.836 176.028 143.72 175.413 143.72C174.731 143.72 174.724 143.738 175.135 144.531ZM172.445 144.902C172.321 145.227 172.611 147.723 172.942 149.172C173.189 150.252 173.626 149.844 173.626 148.534C173.626 146.385 172.823 143.917 172.445 144.902ZM152.659 145.722C152.666 145.911 153.038 146.497 153.487 147.022C154.484 148.188 154.708 147.345 153.732 146.103C153.121 145.328 152.641 145.156 152.659 145.722ZM164.6 145.792C164.009 146.206 163.222 148.037 163.51 148.327C164.259 149.074 165.622 148.052 165.622 146.744C165.622 145.267 165.504 145.157 164.6 145.792ZM102.264 149.102C102.84 151.694 103.004 151.686 103.805 149.034L104.451 146.895L104.927 148.827C105.188 149.889 105.412 151.431 105.425 152.252C105.44 153.326 105.645 154.084 106.149 154.944C106.535 155.603 106.798 156.141 106.735 156.141C106.392 156.141 104.632 155.282 104.484 155.041C104.388 154.887 103.759 154.622 103.085 154.452C102.012 154.182 101.859 154.051 101.859 153.395C101.859 152.382 101.575 152.166 101.109 152.83C100.672 153.453 99.506 153.605 99.7345 153.011C99.8124 152.806 100.154 151.595 100.493 150.32C101.531 146.408 101.647 146.328 102.264 149.102ZM159.915 147.36C159.585 147.519 159.239 147.976 159.143 148.377C159.049 148.776 158.906 149.321 158.827 149.586C158.707 149.99 158.866 150.07 159.805 150.07H160.928V148.551C160.928 146.956 160.877 146.895 159.915 147.36ZM169.411 147.516C169.335 147.781 169.186 148.208 169.08 148.465C168.916 148.861 169.004 148.899 169.67 148.721C170.647 148.463 171.001 147.032 170.089 147.032C169.792 147.032 169.487 147.251 169.411 147.516ZM96.3377 148.758C96.3344 149.677 94.4 151.812 93.9644 151.376C93.7806 151.191 94.617 149.346 95.1089 148.854C95.6339 148.329 96.3394 148.273 96.3377 148.758ZM166.283 150.2C164.877 150.792 164.524 153.105 165.841 153.105C166.556 153.105 166.636 152.991 166.94 151.537C167.329 149.68 167.363 149.747 166.283 150.2ZM76.2732 151.794C76.5068 152.287 76.9639 153.403 77.2885 154.273C78.0387 156.279 78.3915 156.5 78.4163 154.985C78.4279 154.331 78.5322 153.236 78.6482 152.554L78.8585 151.312L79.5789 152.873C80.518 154.909 80.7184 154.988 81.2699 153.548C82.3083 150.826 82.9244 150.999 83.2142 154.092C83.312 155.144 83.4561 156.302 83.5322 156.666C83.673 157.33 81.5531 157.423 79.9814 156.818C79.6518 156.693 79.5193 156.848 79.4514 157.431C79.3636 158.205 79.3438 158.213 77.2322 158.292C74.6734 158.388 74.6237 158.309 74.9119 154.551C75.2067 150.725 75.4932 150.144 76.2732 151.794ZM170.004 151.035C169.984 151.111 169.953 151.287 169.935 151.426C169.915 151.565 169.807 151.772 169.693 151.886C168.951 152.628 169.494 154.485 170.451 154.485C171.599 154.485 171.745 153.872 170.865 152.754C170.562 152.368 170.314 151.979 170.314 151.888C170.314 151.799 170.562 151.726 170.865 151.726C171.17 151.726 171.419 151.615 171.419 151.479C171.419 151.095 170.092 150.679 170.004 151.035ZM125.069 153.824C125.271 154.068 126.157 154.757 127.035 155.353C129.072 156.736 129.105 156.694 125.983 156.694C123.017 156.694 121.457 155.8 121.457 154.099C121.457 153.21 124.375 152.988 125.069 153.824ZM143.095 154.919C145.066 155.313 146.215 155.878 146.487 156.583C146.899 157.656 143.698 158.264 141.495 157.531C140.17 157.09 136.858 156.484 135.465 156.426C135.352 156.421 135.258 155.913 135.258 155.295V154.172L138.226 154.356C139.857 154.457 142.048 154.71 143.095 154.919ZM151.268 155.081C152.558 155.394 153.769 155.696 153.959 155.75C154.491 155.901 154.368 156.813 153.704 157.658C153.181 158.324 148.552 158.597 148.067 157.991C148.043 157.96 147.934 157.08 147.825 156.033L147.628 154.132L148.275 154.323C148.63 154.427 149.978 154.768 151.268 155.081ZM135.13 158.185C135.453 158.422 136.008 158.514 136.563 158.425C137.462 158.279 137.467 158.284 137.467 159.419C137.467 160.79 137.182 160.85 136.261 159.672L135.567 158.786L134.155 159.238C132.588 159.738 132.171 159.478 132.762 158.372C133.123 157.696 134.332 157.602 135.13 158.185ZM171.594 159.005C171.614 159.024 171.718 159.568 171.824 160.214L172.018 161.386H171.056C170.248 161.386 170.049 161.512 169.822 162.16C169.585 162.839 169.342 162.971 167.81 163.256C165.72 163.645 165.678 163.617 166.298 162.244C167.373 159.859 170.471 157.965 171.594 159.005ZM163.138 162.077V164.699H162.033C161.425 164.699 160.928 164.606 160.927 164.491C160.912 162.698 161.92 159.453 162.493 159.453C163.123 159.453 163.138 159.515 163.138 162.077ZM150.536 162.435C151.071 163.162 151.821 163.925 152.204 164.13C152.75 164.422 153.476 165.638 153.476 166.259C153.476 166.645 149.777 166.206 147.017 165.492C141.228 163.996 136.485 161.386 139.555 161.386C140.195 161.386 140.875 161.643 141.5 162.118C142.225 162.673 142.538 162.774 142.778 162.532C142.954 162.358 143.804 162.214 144.666 162.214C146.003 162.214 146.256 162.133 146.379 161.663C146.71 160.396 149.408 160.896 150.536 162.435ZM155.567 164.629C155.66 165.046 155.794 165.606 155.867 165.871C155.973 166.265 155.816 166.355 155.013 166.355C154.03 166.355 154.029 166.353 154.029 165.113C154.029 163.577 155.248 163.195 155.567 164.629ZM73.6565 177.231C74.1699 178.652 74.6518 178.942 75.5362 178.362L76.2666 177.883L76.0894 179.226C75.5064 183.637 75.5246 184.462 76.2202 184.973C76.5829 185.24 76.7535 185.51 76.6028 185.573C73.4081 186.903 73.0321 187.883 74.9682 189.839C76.4952 191.383 76.5581 191.499 76.1093 191.946C75.6604 192.395 75.5462 192.333 74.0026 190.805C72.0815 188.905 71.886 188.92 70.5081 191.075C69.5194 192.618 69.5111 192.625 69.0838 192.014C68.6333 191.373 66.9788 191.346 63.2508 191.921L62.0451 192.106L62.5237 191.374C63.105 190.488 62.8152 190.008 61.3942 189.493C60.1802 189.054 60.2067 188.943 61.6973 188.219C63.0951 187.54 63.1994 187.232 62.3382 186.315C61.6542 185.588 61.6128 185.596 64.1335 185.96C67.7092 186.477 67.4574 185.894 62.893 183.08L61.1441 182.004L62.055 181.759C63.2574 181.436 63.3733 181.007 62.681 179.443C61.9672 177.829 61.9739 177.82 63.7012 178.551C65.2928 179.223 65.9752 178.991 65.9752 177.776C65.9752 176.673 66.3279 177.019 67.9079 179.675C70.0228 183.231 70.5843 183.067 70.0179 179.056L69.8026 177.542L70.4982 178.193C71.3759 179.019 71.8629 178.829 72.4856 177.416C73.0884 176.05 73.2226 176.028 73.6565 177.231ZM180.744 177.534C181.427 178.938 181.732 179.038 182.667 178.158L183.323 177.542L183.109 179.056C182.543 183.064 183.103 183.229 185.219 179.682C186.907 176.853 187.011 176.765 187.25 177.954C187.477 179.092 188.088 179.245 189.56 178.528C191.119 177.771 191.145 177.805 190.395 179.579C189.731 181.154 190.011 181.812 191.346 181.812C192.266 181.812 191.837 182.217 189.28 183.761C185.753 185.891 185.912 186.419 189.908 185.854L191.422 185.641L190.806 186.297C189.926 187.232 190.026 187.537 191.43 188.219C192.921 188.943 192.947 189.054 191.733 189.493C190.31 190.008 190.022 190.488 190.602 191.374L191.082 192.106L189.877 191.921C186.056 191.333 184.497 191.368 183.991 192.058C183.717 192.428 183.454 192.58 183.386 192.408C182.17 189.288 181.074 188.875 179.125 190.805C177.581 192.333 177.465 192.395 177.018 191.946C176.569 191.499 176.631 191.383 178.159 189.839C180.089 187.89 179.676 186.793 176.556 185.578C176.382 185.51 176.534 185.247 176.904 184.977C177.596 184.467 177.623 183.354 177.048 179.226L176.859 177.883L177.591 178.362C178.475 178.942 178.956 178.652 179.471 177.231C179.91 176.017 180.021 176.043 180.744 177.534ZM106.046 196.176C110.47 197.12 110.253 197.03 110.008 197.8C109.867 198.248 109.597 198.373 108.784 198.373C107.209 198.373 106.959 198.87 105.702 204.457C103.653 213.564 104.474 216.316 109.246 216.316C112.5 216.316 113.358 214.827 115.251 205.884C116.371 200.604 116.366 200.502 114.978 199.841C113.968 199.359 113.663 198.488 114.405 198.203C115.374 197.83 121.217 199.505 121.127 200.129C121.058 200.611 120.826 200.735 119.865 200.805C118.227 200.924 118.072 201.257 116.654 207.635C114.627 216.757 113.395 218.277 108.343 217.895C101.243 217.358 99.8389 214.286 102.103 204.241C103.555 197.8 103.557 197.638 102.138 197.042C101.126 196.616 100.745 195.992 101.215 195.521C101.502 195.235 101.858 195.283 106.046 196.176ZM146.094 201.825C147.729 204.405 149.928 207.888 150.978 209.562C153.131 212.997 153.572 213.478 154.779 213.719C155.859 213.935 156.243 215.137 155.302 215.356C152.229 216.075 148.457 216.868 148.11 216.868C147.353 216.868 147.585 215.564 148.413 215.157C149.759 214.496 149.794 214.071 148.648 212.216C148.073 211.283 147.464 210.518 147.295 210.516C146.47 210.51 141.154 211.749 140.882 212.012C140.483 212.398 140.175 215.51 140.485 216.012C140.615 216.222 141.2 216.47 141.785 216.565C143.095 216.777 143.487 217.837 142.359 218.118C140.039 218.701 137.02 219.276 136.846 219.17C136.41 218.905 136.665 217.891 137.29 217.401C138.257 216.641 138.525 215.323 140.659 200.858C141.475 195.328 142.04 195.429 146.094 201.825ZM141.656 204.516C140.915 210.356 140.915 210.323 141.497 210.159C141.785 210.078 143.015 209.791 144.229 209.523C145.443 209.254 146.485 209.001 146.545 208.958C146.685 208.855 142.344 201.964 142.137 201.962C142.05 201.962 141.833 203.112 141.656 204.516ZM124.713 205.73C126.296 206.734 126.934 209.597 126.044 211.724C124.86 214.559 120.907 214.617 119.552 211.82C117.586 207.757 121.194 203.501 124.713 205.73ZM134.556 205.619C135.182 207.62 134.579 209.185 133.885 207.361C133.537 206.447 132.702 206.056 131.314 206.156L130.152 206.24L130.067 207.573C129.966 209.153 130.93 209.394 131.616 207.961C132.177 206.787 132.499 207.322 132.499 209.432C132.499 210.95 132.412 211.348 132.085 211.348C131.856 211.348 131.67 211.124 131.67 210.851C131.67 210.21 131.145 209.692 130.496 209.692C129.643 209.692 129.91 212.832 130.773 212.954C132.345 213.176 131.379 213.832 129.478 213.832C127.605 213.832 126.722 213.459 127.719 213.09C128.537 212.789 128.625 212.444 128.625 209.553C128.625 206.663 128.537 206.318 127.719 206.015C127.444 205.914 127.297 205.705 127.391 205.553C127.656 205.124 134.42 205.187 134.556 205.619ZM121.675 206.119C120.203 206.977 120.352 212.361 121.868 213.052C123.751 213.91 124.874 212.37 124.726 209.129C124.595 206.215 123.448 205.084 121.675 206.119Z" fill="white"/>
<path fill-rule="evenodd" clip-rule="evenodd" d="M116.154 0.154626C114.983 0.262277 113.939 0.432862 113.838 0.535545C113.663 0.711099 112.094 13.3891 112.08 14.7521C112.07 15.5951 111.349 15.8502 106.828 16.617C102.394 17.3672 98.9196 18.1324 94.8934 19.242C93.2638 19.6925 91.8312 20.0601 91.7086 20.0601C91.5861 20.0601 91.0793 19.3894 90.5824 18.5679C90.0856 17.7481 89.438 16.8604 89.1449 16.5938C88.8501 16.3271 88.6099 15.9959 88.6099 15.8551C88.6099 15.716 88.0303 14.7107 87.3231 13.6209C86.6159 12.5312 85.6239 10.9578 85.1187 10.1231C84.6136 9.28675 83.9511 8.31126 83.6464 7.95353L83.0899 7.30266L79.9846 8.46529C78.2754 9.10457 76.1323 10.0353 75.2215 10.5355C74.3106 11.0357 73.2556 11.5375 72.8763 11.6484C71.6375 12.0145 65.0724 15.3815 64.251 16.0721C63.8088 16.4431 63.302 16.7495 63.1248 16.7528C62.4093 16.7644 60.1785 18.4172 60.1785 18.9373C60.1785 19.6395 62.8929 28.0081 63.3566 28.7385C63.6448 29.1923 64.8704 32.7944 64.8704 33.1886C64.8704 33.2416 64.0324 33.7749 63.0072 34.3744C61.9837 34.9756 60.4335 36.067 59.5657 36.8024C58.6962 37.5377 57.2686 38.6556 56.3908 39.285C55.513 39.916 53.4031 41.6864 51.7022 43.22L48.6068 46.0073L47.2852 45.277C46.5581 44.8762 44.473 43.586 42.6512 42.4101C40.8294 41.2359 38.4777 39.8017 37.4243 39.222L35.5115 38.172L32.951 40.86C31.5433 42.3389 29.6453 44.5052 28.7344 45.6745C27.8235 46.8437 26.7834 48.1107 26.4224 48.4899C25.5032 49.4555 23.3966 52.3356 22.9113 53.2879C22.6894 53.7251 22.0634 54.5946 21.5201 55.2206C18.9945 58.1322 19.0011 58.2001 22.1561 61.317C30.5363 69.5962 30.1902 69.0761 28.8487 71.365C28.3171 72.2709 27.6264 73.6107 27.3134 74.3411C27.0004 75.0715 26.6443 75.7323 26.5218 75.8118C26.0945 76.0867 23.3701 82.0605 21.9855 85.7538C21.0614 88.2181 21.7189 88.0989 13.597 87.2841C6.27343 86.5504 5.68053 86.5554 5.44204 87.3603C2.93625 95.8216 0.380781 108.347 0.607676 111.05L0.693797 112.077L7.18102 114.29C10.7484 115.507 13.7924 116.633 13.9432 116.792C14.1171 116.976 14.2197 120.866 14.2197 127.297C14.2197 133.728 14.1171 137.617 13.9432 137.801C13.7924 137.96 10.7484 139.086 7.18102 140.303C0.811386 142.476 0.692141 142.531 0.596083 143.326C0.297973 145.772 2.92466 158.728 5.44204 167.232C5.68053 168.037 6.27343 168.042 13.597 167.309C21.7189 166.494 21.0614 166.374 21.9855 168.839C23.3701 172.534 26.0945 178.506 26.5218 178.781C26.6443 178.86 27.0004 179.523 27.3134 180.252C27.6264 180.982 28.3171 182.322 28.8487 183.229C30.1902 185.516 30.5363 184.998 22.1561 193.277C19.2628 196.134 19.1717 196.416 20.5645 198.145C21.0928 198.802 22.335 200.54 23.3254 202.005C24.3141 203.471 25.5562 205.149 26.0862 205.732C26.6178 206.315 27.802 207.749 28.7212 208.918C29.6403 210.087 31.5433 212.255 32.951 213.733L35.5115 216.421L37.4243 215.371C38.4777 214.793 40.8294 213.358 42.6512 212.182C44.473 211.008 46.5581 209.718 47.2852 209.316L48.6068 208.585L51.7022 211.374C53.4031 212.908 55.513 214.678 56.3908 215.308C57.2686 215.939 58.6962 217.055 59.5657 217.79C60.4335 218.526 61.9837 219.619 63.0072 220.218C64.0324 220.818 64.8704 221.353 64.8704 221.406C64.8704 221.8 63.6448 225.402 63.3566 225.854C62.8929 226.585 60.1785 234.953 60.1785 235.655C60.1785 236.175 62.4093 237.83 63.1248 237.84C63.302 237.843 63.8088 238.15 64.251 238.521C65.0724 239.213 71.6375 242.58 72.8763 242.944C73.2556 243.057 74.3106 243.557 75.2215 244.057C76.1323 244.557 78.2754 245.49 79.9846 246.129L83.0899 247.29L83.6464 246.639C83.9511 246.281 84.6136 245.306 85.1187 244.471C85.6239 243.635 86.6159 242.061 87.3231 240.972C88.0303 239.882 88.6099 238.877 88.6099 238.737C88.6099 238.598 88.8501 238.265 89.1449 237.999C89.438 237.734 90.0856 236.844 90.5824 236.025C91.0793 235.205 91.5861 234.534 91.7086 234.534C91.8312 234.534 93.2638 234.902 94.8934 235.351C98.9196 236.462 102.394 237.225 106.828 237.977C112.335 238.91 111.911 238.565 112.333 242.444C113.07 249.219 113.673 253.891 113.83 254.05C114.483 254.703 138.757 254.897 139.377 254.254C139.514 254.112 139.953 251.013 140.352 247.369C140.751 243.726 141.197 240.528 141.342 240.264C141.488 240.001 141.607 239.597 141.607 239.368C141.607 239.138 141.848 238.949 142.142 238.949C142.437 238.949 142.745 238.842 142.826 238.711C142.907 238.578 143.747 238.383 144.693 238.277C147.859 237.918 155.314 236.29 159.906 234.953C161.248 234.562 161.579 234.546 161.955 234.855C162.397 235.218 164.794 238.767 164.794 239.059C164.794 239.344 167.242 242.994 167.674 243.352C167.911 243.549 168.106 243.817 168.106 243.948C168.106 244.125 169.759 246.914 170.185 247.452C170.368 247.686 175.637 245.68 178.732 244.196C189.822 238.885 193.227 236.97 193.219 236.051C193.215 235.748 192.184 232.331 190.925 228.459L188.636 221.419L190.999 219.789C194.598 217.308 198.836 213.94 201.475 211.462C204.812 208.329 204.616 208.387 206.905 209.841C207.959 210.51 208.932 211.06 209.07 211.065C209.207 211.068 209.953 211.551 210.726 212.138C212.149 213.216 217.879 216.591 218.288 216.591C218.604 216.591 221.213 213.996 222.412 212.487C222.97 211.785 224.177 210.395 225.095 209.4C227.513 206.777 234.343 197.325 234.35 196.593C234.351 196.449 231.869 193.869 228.831 190.859C225.795 187.852 223.311 185.321 223.311 185.237C223.311 184.995 224.775 182.539 225.15 182.153C225.504 181.787 227.372 177.973 229.033 174.221C229.572 173.007 230.1 171.951 230.207 171.875C230.315 171.798 230.814 170.646 231.314 169.314C232.453 166.277 231.524 166.5 239.677 167.312C246.645 168.007 248.43 168.123 248.43 167.887C248.43 167.572 250.686 159.804 250.92 159.316C251.476 158.153 253.011 150.19 253.826 144.248L254 142.983L250.318 141.716C248.293 141.02 245.083 139.922 243.185 139.278C241.287 138.632 239.694 138.003 239.643 137.877C239.593 137.751 239.366 137.648 239.139 137.648C238.8 137.648 238.765 137.377 238.939 136.06C239.212 134 239.212 120.593 238.939 118.533C238.765 117.218 238.8 116.946 239.139 116.946C239.366 116.946 239.593 116.845 239.643 116.721C239.694 116.598 242.405 115.593 245.669 114.488C248.934 113.384 252.143 112.284 252.801 112.044L253.998 111.607L253.821 110.343C252.917 103.917 251.479 96.446 250.92 95.2767C250.775 94.9737 250.149 92.9283 249.53 90.7322C248.911 88.5378 248.343 86.6796 248.268 86.605C248.193 86.5305 244.653 86.8088 240.396 87.2211C231.41 88.0939 232.455 88.3175 231.314 85.2801C230.814 83.9469 230.315 82.7942 230.207 82.718C230.1 82.6418 229.572 81.5868 229.033 80.3712C227.372 76.62 225.504 72.8058 225.15 72.4398C224.775 72.0539 223.311 69.5978 223.311 69.356C223.311 69.2716 225.795 66.7426 228.831 63.7333C231.869 60.7241 234.351 58.1438 234.35 57.9997C234.343 57.2693 227.513 47.8159 225.095 45.1925C224.177 44.1972 222.935 42.7629 222.334 42.006C221.009 40.335 218.606 37.9998 218.214 38.0047C218.056 38.0047 217.178 38.4718 216.263 39.0398C215.347 39.6063 213.999 40.383 213.268 40.7623C212.539 41.1415 211.624 41.7427 211.234 42.1004C210.845 42.4565 210.019 43.0097 209.398 43.331C208.777 43.6506 207.531 44.376 206.629 44.9424C204.654 46.1829 204.765 46.221 201.475 43.1306C198.836 40.653 194.598 37.2843 190.999 34.8034L188.636 33.1753L190.925 26.1333C192.184 22.2612 193.215 18.8445 193.219 18.5414C193.227 17.6223 189.822 15.7094 178.732 10.3964C175.637 8.91245 170.368 6.90683 170.185 7.14201C169.759 7.67861 168.106 10.4676 168.106 10.6465C168.106 10.7756 167.911 11.0439 167.674 11.2427C167.194 11.6402 165.006 14.9508 164.716 15.7177C164.449 16.4182 162.445 19.3265 161.937 19.7488C161.582 20.0436 161.223 20.0237 159.906 19.6411C155.314 18.3029 147.859 16.6749 144.693 16.3172C143.747 16.2095 142.907 16.0141 142.826 15.8833C142.745 15.7508 142.437 15.6431 142.142 15.6431C141.848 15.6431 141.607 15.4543 141.607 15.2258C141.607 14.9956 141.488 14.5915 141.342 14.3281C141.197 14.0648 140.751 10.8684 140.352 7.22482C139.953 3.58124 139.512 0.479235 139.37 0.333492C139.065 0.0155077 119.329 -0.135204 116.154 0.154626ZM138.156 30.966C211.561 39.7172 248.907 125.896 204.847 184.857C156.41 249.675 54.2692 230.867 32.9858 153.21C14.8474 87.0257 70.0625 22.8475 138.156 30.966ZM124.218 35.2489C114.936 35.4758 115.937 35.3598 115.937 36.2078C115.937 36.7179 116.082 36.8968 116.501 36.8968C116.811 36.8968 117.371 37.2015 117.744 37.5741L118.421 38.2532V45.8219C118.421 53.9354 118.446 53.7864 116.97 54.1574C116.392 54.3014 116.212 54.5134 116.212 55.05V55.7539L125.764 55.5899C131.018 55.4989 135.379 55.3631 135.456 55.2852C135.534 55.2074 135.663 53.5131 135.745 51.5191L135.892 47.8937L135.102 47.9848C134.438 48.0627 134.28 48.2399 134.098 49.121C133.398 52.5194 131.172 54.0116 126.806 54.0116C123.721 54.0116 123.664 53.9272 123.664 49.2253V45.6678L124.976 45.8583C127.06 46.1614 127.949 46.9646 128.348 48.904C128.481 49.5532 128.664 49.7321 129.196 49.7321C129.951 49.7321 130.281 45.9212 129.872 41.9348C129.695 40.2207 128.371 39.1392 128.351 40.6927C128.322 43.0676 124.276 45.7854 123.557 43.9139C123.148 42.8474 123.381 38.0726 123.871 37.4665C125.678 35.2389 131.655 36.9531 133.187 40.1362C133.908 41.6317 134.117 41.8586 134.781 41.862L135.546 41.8653L135.357 39.174C135.027 34.4407 136.473 34.9508 124.218 35.2489ZM105.309 37.3522C101.776 38.5016 102.025 38.3558 102.229 39.1641C102.371 39.7305 102.525 39.7901 103.621 39.704C104.743 39.6145 104.89 39.6758 105.251 40.3913C105.829 41.534 108.545 49.8265 108.438 50.118C108.386 50.2538 105.302 48.2713 101.583 45.7126C97.863 43.1538 94.6533 41.0554 94.4496 41.0488C94.0985 41.0388 88.6927 42.6387 88.277 42.8755C87.5781 43.2747 88.6099 44.2121 89.7461 44.2121C91.278 44.2121 91.2697 44.1972 93.8385 52.2379C96.2035 59.6376 96.2266 60.0517 94.3187 60.7307C93.8633 60.8913 93.8583 61.7807 94.3105 62.2759C94.5142 62.5011 101.031 60.2521 101.026 59.9589C101.016 59.2435 100.46 58.8841 99.3287 58.8642C98.2439 58.8443 98.0882 58.7516 97.6576 57.8705C97.1558 56.847 93.7971 46.5224 93.9246 46.3949C93.966 46.3551 97.6791 48.8526 102.177 51.9464C110.297 57.5326 110.362 57.5691 111.352 57.2958C112.662 56.9348 112.744 57.4035 109.71 47.8871C106.803 38.7782 106.828 38.9405 108.242 38.1472C109.092 37.6685 109.204 37.4963 109.007 36.9663C108.721 36.1945 108.936 36.173 105.309 37.3522ZM143.721 36.9531C143.628 37.3009 143.668 37.6271 143.808 37.6752C145.862 38.3774 145.857 38.4569 143.267 46.7857C140.965 54.1905 140.695 54.7155 139.335 54.4505C138.537 54.2948 137.712 55.1958 138.204 55.686C138.333 55.8168 142.103 57.0358 146.579 58.3972C151.056 59.7569 155.08 61.0089 155.523 61.1779C156.543 61.5671 156.505 61.6201 157.858 58.0013C159.14 54.5731 159.168 54.4124 158.56 54.1789C157.815 53.8924 157.699 53.9719 156.793 55.3829C154.921 58.3011 151.776 58.8625 147.523 57.0391C145.92 56.3518 145.877 55.9758 146.98 52.2296C148.113 48.3806 147.959 48.5976 149.282 48.9934C151.013 49.5135 151.684 50.4558 151.672 52.3604C151.664 53.9321 152.308 54.7917 152.954 54.0712C153.33 53.6522 155.728 45.4741 155.557 45.1958C155.193 44.6062 154.348 44.9192 153.8 45.8484C152.803 47.5393 149.865 48.3177 148.754 47.1865C148.505 46.9348 150.223 41.4943 150.749 40.8583C151.582 39.8547 156.329 41.3701 157.878 43.1322C158.691 44.0597 159.472 46.7443 159.163 47.5492C158.976 48.0378 160.262 48.7235 160.63 48.331C160.908 48.0345 162.326 42.0673 162.159 41.9C162.02 41.7593 145.733 36.7229 144.66 36.486C144.014 36.3453 143.86 36.4214 143.721 36.9531ZM170.024 46.3088C169.771 46.7824 169.819 46.9961 170.291 47.4996C170.953 48.2034 171.023 48.9603 170.501 49.7404C162.692 61.3799 161.826 62.3852 160.383 61.4743C159.989 61.2242 158.997 61.8155 158.997 62.2991C158.997 62.5078 166.463 67.7297 167.124 67.9831C167.979 68.311 168.21 66.986 167.44 66.1828C166.397 65.093 166.521 64.626 168.674 61.5174C170.826 58.4121 170.837 58.4054 172.15 59.4074C174.282 61.0338 174.355 62.3355 172.516 65.9907C170.63 69.7403 170.749 71.0652 173.126 72.786C175.027 74.1639 177.548 73.8111 178.85 71.9827C179.918 70.4822 178.845 69.8131 177.51 71.148C175.764 72.8936 175.11 71.5736 176.452 69.0149C178.035 65.9957 178.116 64.3958 176.789 62.4399C176.051 61.3518 176.153 61.2789 177.586 61.8784C182.636 63.9884 186.344 59.1573 182.944 54.8993C181.794 53.4601 180.296 52.2892 174.964 48.6672C170.122 45.3747 170.441 45.5271 170.024 46.3088ZM81.5712 46.8801C80.2546 47.6056 73.9793 51.5837 73.9793 51.6913C73.9793 52.4598 74.6716 52.7927 75.7001 52.5178C77.1078 52.1435 77.1393 52.1799 81.6076 59.3942C85.6139 65.8599 85.6338 65.9128 84.5987 66.9927C83.9263 67.6949 83.8783 67.8522 84.2111 68.2861C84.4182 68.5561 84.6152 68.8227 84.65 68.8757C84.7328 69.0115 93.0154 63.846 93.022 63.6555C93.0402 62.9798 92.2684 62.5541 91.5314 62.834C90.1932 63.3441 89.8769 62.998 86.0495 56.8304C81.0379 48.7549 81.3178 49.4075 82.4009 48.326C83.4493 47.276 82.8249 46.1879 81.5712 46.8801ZM177.301 52.112C179.608 53.2945 180.392 55.1825 179.414 57.2031C178.255 59.5979 176.657 60.0368 173.974 58.6953C171.519 57.4697 171.514 57.4498 172.982 55.2355C175.203 51.8834 175.888 51.3866 177.301 52.112ZM65.2 57.68C64.7892 58.1189 64.6948 58.417 64.8787 58.7085C65.3639 59.4753 65.147 59.7569 63.2838 60.7771C56.2649 64.6194 55.1305 71.3252 60.5246 77.0903C66.3808 83.3507 75.8939 81.3185 77.7305 73.4153C78.1761 71.4991 78.1992 71.4809 79.4116 72.0589C80.4069 72.5342 80.4285 72.5309 81.081 71.8784L81.7418 71.2159L79.3188 68.9221C75.7763 65.57 75.7299 65.4972 76.2963 64.308C76.7683 63.316 76.558 62.5674 75.8061 62.5674C74.9449 62.5674 69.2013 69.2252 69.6634 69.6856C70.0824 70.1063 70.1734 70.1046 70.9171 69.6657C72.2834 68.8592 73.3152 69.3726 74.7826 71.5869C76.7418 74.5465 74.6153 78.1304 71.1738 77.6683C67.6279 77.193 60.73 69.9092 60.73 66.6399C60.73 63.003 65.3275 60.8019 68.9793 62.6899C69.7246 63.0742 69.8455 63.0742 70.2364 62.685C70.9634 61.9563 70.7531 61.6018 68.2241 59.2931L65.7813 57.0623L65.2 57.68ZM118.144 61.0851C63.3765 68.5147 40.5247 135.176 79.3619 174.21C114.688 209.713 174.896 195.276 190.307 147.607C205.219 101.479 166.104 54.5797 118.144 61.0851ZM191.617 62.7297C191.026 63.1454 191.021 63.1818 191.481 63.9602C192.232 65.2322 191.829 65.7555 186.243 70.7571C180.474 75.9227 180.069 76.1778 178.802 75.4507C177.984 74.9804 177.929 74.9804 177.46 75.4574C176.993 75.9343 177.106 76.1049 180.199 79.5978C183.407 83.2215 183.427 83.2364 183.972 82.6998C184.433 82.246 184.466 82.0721 184.179 81.615C183.356 80.295 183.613 79.9572 189.378 74.8197C195.812 69.0844 195.701 69.1556 196.851 70.0052C197.684 70.6213 197.713 70.623 198.22 70.1162C198.727 69.6094 198.697 69.5531 196.879 67.5227C195.855 66.3816 194.391 64.7403 193.623 63.8758C192.283 62.3637 192.203 62.319 191.617 62.7297ZM132.932 63.9652C186.157 69.144 209.535 134.376 171.713 172.168C138.794 205.061 83.0783 192.878 66.8661 149.241C50.6455 105.585 86.3989 59.4372 132.932 63.9652ZM202.313 75.0433C201.958 75.2851 201.928 75.5286 202.15 76.3649C202.573 77.9433 202.52 77.9847 195.709 81.6067C188.238 85.5815 188.253 85.5766 187.049 84.409C185.37 82.7809 184.843 83.7912 186.115 86.2026C188.59 90.8978 188.407 90.666 189.168 90.1012C189.567 89.8048 189.587 89.611 189.312 88.7249C188.884 87.3404 189.312 86.8916 192.672 85.2023C194.115 84.4769 196.463 83.248 197.892 82.4712C199.32 81.6945 200.546 81.1132 200.612 81.1811C200.68 81.249 198.914 85.3149 196.692 90.2188L192.647 99.1356L193.116 100.174C193.699 101.466 193.089 101.627 198.444 98.763C210.799 92.1532 210.406 92.3039 211.435 93.7481C211.952 94.4752 212.091 94.5315 212.692 94.2582L213.368 93.9502L211.735 90.8929C209.982 87.6153 209.875 87.4961 209.151 88.0277C208.745 88.3258 208.724 88.503 209 89.2334C209.429 90.3662 209.211 90.8332 207.841 91.6961C205.509 93.1684 199.206 96.3284 199.36 95.9475C199.447 95.7305 200.873 92.5722 202.53 88.9286C204.184 85.2851 205.7 81.9065 205.897 81.4196C206.238 80.5766 206.181 80.3994 204.693 77.6236C203.071 74.6011 203.028 74.5547 202.313 75.0433ZM47.4674 79.5729C45.9205 82.8869 45.9221 82.8787 46.5995 83.2414C47.0003 83.4567 47.2454 83.3225 47.8532 82.5607C48.8602 81.2987 48.736 81.2705 54.1782 83.9982C58.0304 85.9293 58.832 86.4262 58.3848 86.61C58.0801 86.7359 54.3653 87.5242 50.1288 88.3639C45.8923 89.2019 42.3978 89.9207 42.363 89.9604C42.3266 90.0002 41.6161 91.3549 40.7831 92.9714L39.2677 95.9094L39.9401 96.2158C40.5346 96.4857 40.6953 96.4245 41.3114 95.6924C42.3167 94.5 42.4657 94.5431 49.5028 98.0657C57.4209 102.029 57.2702 101.901 56.4604 103.992C56.3494 104.28 56.5134 104.526 56.944 104.724C57.7306 105.081 61.0148 99.1224 60.3805 98.4881C59.8721 97.9796 59.4232 98.1254 58.7989 99.0031C57.9459 100.201 57.6164 100.111 51.3643 96.9611C46.7784 94.6507 45.8493 94.0893 46.3958 93.9584C46.7651 93.869 50.9172 93.0409 55.624 92.1168C60.3308 91.1943 64.4646 90.3745 64.8091 90.2966C65.4004 90.1642 66.5232 88.4185 66.2152 88.1105C66.1423 88.0376 62.6064 86.244 58.3616 84.1258C49.6866 79.7998 49.5707 79.717 49.9963 78.1801C50.2249 77.3504 50.2083 77.0705 49.9201 76.8866C49.1219 76.3815 48.7857 76.7508 47.4674 79.5729ZM91.5927 84.5183C91.1604 84.9505 92.2817 89.6259 93.3135 91.6895C94.5937 94.2516 95.3688 97.1946 95.7828 101.053C96.1505 104.5 95.7166 104.874 92.5831 103.811C91.0346 103.284 90.7994 103.501 91.1223 105.164C91.2449 105.8 91.3509 106.916 91.3575 107.647C91.3675 108.743 91.6208 109.397 92.7967 111.373C95.7298 116.302 95.9451 116.575 97.6377 117.486C100.47 119.013 100.324 118.715 99.7063 121.683L99.1697 124.26L100.057 125.364C101.829 127.569 102.47 129.463 103.244 134.786C104.138 140.934 105.044 143.287 107.012 144.579C108.318 145.436 108.661 144.382 107.621 142.7C106.788 141.351 105.819 137.343 105.175 132.579C104.38 126.711 104.3 127.12 106.207 127.32C115.198 128.259 117.855 129.609 120.001 134.336C120.518 135.474 121.225 136.964 121.571 137.648C122.364 139.208 123.504 142.319 123.341 142.481C123.274 142.547 121.957 142.493 120.415 142.358C114.839 141.875 110.885 142.847 110.746 144.737C110.551 147.41 115.269 148.865 128.358 150.169L134.844 150.813L136.973 149.682C138.459 148.894 139.199 148.321 139.423 147.791C141.187 143.597 150.266 143.587 150.463 147.777C150.504 148.663 157.671 153.2 160.375 154.054C165.231 155.588 174.264 155.662 178.154 154.198C182.944 152.398 184.635 146.553 181.339 143.205C178.151 139.965 175.501 139.331 163.966 139.036C159.183 138.914 155.006 138.726 154.684 138.622C154.027 138.407 152.899 135.793 152.358 133.231C150.976 126.701 148.58 121.196 145.691 117.913C144.716 116.807 141.394 114.185 140.965 114.185C140.877 114.185 139.155 113.428 137.136 112.503C135.115 111.577 132.346 110.371 130.981 109.825C127.585 108.462 125.688 107.087 124.719 105.28C123.187 102.425 120.879 100.957 116.488 100.045C110.049 98.705 105.69 100.061 100.081 105.146L98.441 106.633L98.325 108.463C98.2025 110.386 98.6794 111.847 99.963 113.48L100.519 114.185H105.564H110.609L111.727 114.995C112.871 115.825 114.786 119.813 114.454 120.677C113.77 122.459 104.864 121.943 103.078 120.018C102.711 119.619 101.967 118.455 101.429 117.43C100.889 116.405 100.264 115.565 100.039 115.565C96.2548 115.565 93.855 108.672 96.7517 106.123C97.8745 105.134 97.9938 104.911 97.9938 103.799C97.9938 100.729 95.7265 85.3993 95.1717 84.7187C94.8984 84.3841 91.8958 84.2152 91.5927 84.5183ZM78.3963 100C78.3963 100.638 78.3152 100.699 77.6742 100.538C77.2768 100.439 76.5944 100.285 76.1555 100.197L75.3606 100.038V101.729C75.3606 103.081 75.2728 103.42 74.9267 103.42C74.6434 103.42 74.5457 103.586 74.6418 103.904C74.723 104.169 75.0476 106.433 75.3655 108.935C75.7133 111.679 76.1539 113.962 76.4752 114.69C77.9343 117.988 80.5378 136.257 79.925 138.894C79.3619 141.317 79.1317 141.31 78.4891 138.849C77.6792 135.75 77.2089 135.51 76.7749 137.974C76.2897 140.729 75.7846 140.816 74.9647 138.289C74.2592 136.116 73.8038 135.922 73.5587 137.695L73.3599 139.144L72.762 137.969C72.0019 136.481 71.77 136.726 71.7799 139.005C71.8048 144.415 73.292 147.55 75.8458 147.575C76.6342 147.584 76.7998 147.721 77.1857 148.688C77.863 150.381 78.5553 150.192 78.9445 148.206C79.4149 145.818 79.3503 145.906 80.3854 146.255C81.6689 146.686 81.8793 146.896 83.123 148.99L84.231 150.855L85.7729 150.325C86.6209 150.031 87.7173 149.485 88.2108 149.109C88.9412 148.552 89.1366 148.501 89.2641 148.834C89.3651 149.099 89.8057 149.241 90.5327 149.241C92.2634 149.241 92.1326 146.967 90.3456 145.967C89.9481 145.745 89.9398 145.533 90.2595 144.023C90.4582 143.09 90.5592 142.266 90.4831 142.191C90.1088 141.815 88.7623 142.981 88.1893 144.178L87.5483 145.515L87.5268 143.352C87.502 140.838 86.9935 140.54 86.5397 142.774C85.9832 145.513 85.0326 145.714 84.9995 143.099L84.978 141.375L84.3122 142.754C83.9478 143.513 83.6464 144.289 83.6447 144.48C83.6414 144.702 83.2986 144.8 82.6759 144.755C81.7169 144.687 81.7103 144.677 81.7087 143.375V142.064H82.6742C83.4576 142.064 83.6414 141.959 83.6414 141.512C83.6414 141.154 83.8252 140.961 84.1631 140.961C84.4513 140.961 84.7577 140.773 84.8455 140.547C84.9697 140.222 85.5195 140.132 87.3579 140.132C89.6732 140.132 89.7129 140.121 89.7129 139.455C89.7129 139.084 89.9266 138.66 90.1866 138.514C90.6023 138.281 90.5211 138.102 89.496 136.989C88.1479 135.527 88.0783 135.316 89.024 135.553C89.8703 135.765 89.8719 135.846 88.9942 132.97C87.7189 128.791 86.4437 127.087 85.3373 128.089C84.607 128.75 84.0936 128.665 84.2973 127.918C84.3917 127.575 84.5424 126.676 84.6351 125.916L84.8024 124.536L83.3251 124.122C80.2281 123.253 81.2913 121.095 85.6371 119.424C86.8925 118.942 87.9706 118.496 88.0336 118.437C88.0982 118.375 86.813 118.326 85.18 118.326C82.4407 118.326 82.1972 118.369 82.0647 118.877C81.8395 119.737 81.4536 119.535 80.874 118.256C80.0045 116.342 80.1138 115.979 81.5613 115.979C83.8484 115.979 84.0389 115.222 82.0101 114.199C80.1105 113.238 80.0227 112.685 81.8163 112.953C82.7305 113.091 83.1976 112.998 83.9992 112.524C85.3638 111.721 85.2976 111.544 83.4344 111.007C80.8375 110.258 79.4679 108.389 81.5149 108.389C82.0167 108.389 82.5649 108.25 82.7355 108.079C82.9061 107.91 83.8186 107.567 84.7643 107.32C85.7116 107.074 86.4801 106.746 86.4751 106.595C86.4553 105.986 83.2357 105.003 80.8011 104.863C79.1979 104.77 78.4112 104.619 78.4808 104.417C78.5454 104.23 79.13 104.146 79.9846 104.202L81.3824 104.295L81.2847 102.132L81.1853 99.9703L80.2744 99.6408C78.8021 99.1091 78.3963 99.1853 78.3963 100ZM144.55 99.4635C144.449 99.5646 144.367 100.24 144.367 100.966C144.367 101.691 144.242 102.36 144.092 102.455C143.939 102.547 143.815 102.87 143.815 103.17C143.815 103.47 143.52 104.301 143.161 105.017C141.958 107.408 141.962 107.561 143.222 107.561C144.1 107.561 144.434 107.408 144.887 106.802L145.453 106.042L145.475 106.732C145.486 107.112 145.653 107.792 145.847 108.245L146.198 109.068L146.947 108.319L147.695 107.57L147.859 108.394C148.018 109.184 148.083 109.217 149.496 109.217C151.25 109.217 151.354 108.968 151.213 105.098C151.11 102.248 150.728 102.001 149.89 104.243C148.949 106.759 148.784 106.537 148.784 102.746C148.784 100.84 148.671 99.2797 148.533 99.2797C148.095 99.2797 146.299 102.852 146.299 103.722C146.299 105.545 145.776 104.091 145.594 101.761C145.412 99.4304 145.153 98.8607 144.55 99.4635ZM110.152 102.039C110.69 102.188 111.559 102.758 112.084 103.303C113.31 104.578 114.279 105.076 115.538 105.076C116.344 105.076 116.513 105.164 116.379 105.514C116.288 105.754 116.212 106.302 116.212 106.732C116.212 107.478 116.084 107.557 113.52 108.399C110.276 109.464 108.514 110.522 107.543 111.986C106.386 113.738 105.306 113.572 104.15 111.466C103.453 110.197 103.073 109.801 102.354 109.598C101.189 109.265 101.028 108.173 101.861 106.236C103.207 103.105 107.028 101.171 110.152 102.039ZM204.91 102.966C197.16 104.942 194.144 112.908 198.924 118.776C200.239 120.389 200.244 120.591 199.004 121.232C198.137 121.681 197.858 122.907 198.56 123.177C198.762 123.254 200.337 123.064 202.059 122.754C206.418 121.969 206.648 121.987 207.347 123.172C207.72 123.803 208.069 124.099 208.326 124C208.546 123.915 208.825 123.846 208.944 123.846C209.146 123.846 207.679 114.747 207.437 114.505C206.986 114.054 205.961 114.815 205.983 115.583C206.056 118.14 200.511 118.496 199.007 116.03C196.554 112.007 200.847 108.682 209.116 108.2C216.716 107.758 219.199 114.194 212.924 118.072C212.043 118.617 211.864 119.318 212.443 119.96C212.546 120.073 217.69 119.263 218.687 118.978C219.391 118.778 219.36 117.221 218.652 117.221C217.597 117.221 217.428 116.588 217.806 114.054C218.919 106.573 212.478 101.037 204.91 102.966ZM122.096 104.825C122.803 105.293 123.974 106.203 124.696 106.845C127.626 109.45 129.262 110.485 135.057 113.402C141.516 116.651 142.585 117.413 144.56 120.182C146.669 123.137 147.21 125.212 146.554 127.817C146.351 128.625 146.344 129.468 146.53 130.494C146.68 131.317 146.753 132.04 146.69 132.102C146.629 132.165 146.501 131.823 146.405 131.343C146.096 129.795 144.368 130.05 144.363 131.645C144.36 132.801 144.338 132.827 142.777 133.559C141.905 133.967 141.162 134.215 141.124 134.111C140.183 131.544 139.186 131.26 137.508 133.079C136.117 134.589 136.381 134.574 134.474 133.251C132.336 131.767 131.808 131.709 131.808 132.955C131.808 133.693 131.955 133.986 132.432 134.195C133.613 134.713 133.558 135.992 132.354 135.992C131.712 135.992 131.689 136.065 131.604 138.407C131.533 140.356 131.472 140.649 131.283 139.925C131.084 139.164 130.923 139.028 130.22 139.028C129.325 139.028 129.297 139.266 129.875 141.929C130.046 142.714 129.988 142.787 128.861 143.198C127.898 143.549 127.641 143.788 127.528 144.435C127.268 145.942 121.993 146.691 119.042 145.641C117.343 145.038 119.045 144.548 122.85 144.548C124.807 144.548 125.403 143.463 125.504 139.718C125.546 138.2 125.662 135.876 125.764 134.554L125.95 132.151L128.194 130.393L130.44 128.634L130.776 126.318C131.054 124.412 131.049 123.968 130.746 123.798C129.686 123.205 129.16 122.466 128.815 121.087C128.221 118.71 125.715 118.712 122.995 121.091C122.131 121.848 121.215 122.466 120.958 122.468C119.66 122.469 117.682 124.473 118.461 124.995C119.009 125.364 120.635 125.048 121.505 124.405C122.268 123.842 123.941 123.63 123.941 124.097C123.941 127.281 103.886 127.895 102.643 124.75C102.061 123.279 101.997 123.296 107.586 123.367C114.241 123.452 116.286 122.6 117.889 119.081C118.088 118.644 118.525 118.286 118.982 118.185C119.401 118.094 119.93 117.807 120.16 117.551C120.586 117.072 122.169 109.838 121.906 109.573C121.42 109.089 120.364 109.858 119.921 111.019C119.242 112.796 118.845 112.918 119.069 111.28C119.221 110.172 119.16 109.848 118.708 109.367C118.196 108.821 118.186 108.695 118.555 107.112C119.36 103.665 119.859 103.342 122.096 104.825ZM36.8629 105.111C36.5449 106.89 34.0325 122.88 34.064 122.927C34.4697 123.533 35.5346 123.2 35.8344 122.373C36.3164 121.038 36.381 121.037 44.3339 122.244C52.1295 123.428 52.7257 123.627 52.7257 125.063C52.7257 126.106 53.9562 126.719 54.2229 125.808C54.5226 124.788 57.2172 107.267 57.0947 107.145C56.9141 106.964 50.8426 105.628 50.2 105.628C48.9877 105.628 49.6154 106.908 51.2103 107.688C54.3355 109.217 55.2547 112.118 54.0738 116.734C53.6796 118.276 53.2474 118.385 49.5922 117.865C45.74 117.317 45.6986 117.296 45.942 115.997C46.2418 114.392 47.4259 113.283 49.0308 113.099C53.2308 112.615 47.0765 110.298 41.6476 110.32C40.5495 110.323 40.8675 111.449 42.1163 111.984C43.7327 112.678 44.5161 113.914 44.3538 115.51C44.1931 117.1 44.3124 117.062 41.0911 116.552C37.1511 115.928 36.8728 115.711 37.1047 113.452C37.5568 109.028 39.7148 106.466 42.9957 106.458C43.3468 106.458 43.6168 106.287 43.6168 106.065C43.6168 105.85 43.6863 105.492 43.7708 105.27C43.8933 104.952 43.534 104.83 42.0467 104.684C41.0116 104.583 39.4614 104.429 38.5986 104.341L37.0302 104.182L36.8629 105.111ZM160.021 105.214C159.925 105.669 159.761 106.66 159.656 107.415C159.524 108.38 159.275 108.938 158.818 109.298C157.427 110.393 158.076 110.841 160.221 110.267C161.485 109.929 164.782 110.333 165.521 110.916C166.077 111.357 166.216 110.285 165.696 109.566C164.681 108.162 164.242 107.113 164.242 106.088C164.241 104.667 163.581 104.879 163.462 106.34C163.343 107.809 161.765 109.51 161.753 108.182C161.75 107.776 161.707 107.764 161.491 108.105C161.173 108.609 160.981 108.178 160.514 105.924C160.221 104.513 160.181 104.455 160.021 105.214ZM104.08 105.199C103.549 105.84 103.835 106.857 104.575 106.963C105.379 107.075 106.738 106.535 106.934 106.025C107.288 105.103 104.764 104.374 104.08 105.199ZM157.909 117.86C157.377 122.927 157.942 123.753 159.827 120.672L160.84 119.016L159.746 116.946C159.143 115.807 158.565 114.78 158.459 114.662C158.353 114.545 158.106 115.984 157.909 117.86ZM162.311 117.284C161.847 118.047 161.828 118.205 162.177 118.402C162.402 118.526 162.584 118.869 162.584 119.162C162.584 119.52 162.836 119.75 163.345 119.863C163.762 119.955 164.206 120.053 164.333 120.083C164.459 120.111 163.962 120.533 163.229 121.02C162.495 121.507 161.508 122.249 161.036 122.668L160.176 123.432L160.567 125.512C160.877 127.156 161.082 127.648 161.551 127.859C161.892 128.011 162.253 128.536 162.401 129.091L162.659 130.056L163.008 129.228C164.255 126.269 165.514 117.122 164.741 116.631C163.901 116.098 162.863 116.378 162.311 117.284ZM171.279 118.395C171.11 118.872 170.59 123.248 170.59 124.184C170.59 124.818 170.71 124.95 171.281 124.95C171.972 124.95 171.973 124.957 171.794 126.878C171.655 128.384 171.723 129.086 172.104 130.086L172.594 131.368L171.592 132.286C171.041 132.791 170.59 133.407 170.59 133.654C170.59 133.902 170.496 134.063 170.383 134.01C170.269 133.957 168.84 133.256 167.207 132.453C163.769 130.76 163.903 130.734 163.096 133.239C162.682 134.526 162.384 135.073 162.199 134.887C162.048 134.737 161.705 134.611 161.438 134.611C160.839 134.611 160.38 133.11 160.378 131.138C160.377 129.402 160.267 129.29 159.075 129.788C158.124 130.186 158.116 130.182 157.801 129.351C157.242 127.867 156.124 128.306 156.006 130.056C155.688 134.821 157.008 135.522 167.008 135.901L171.567 136.073L171.9 135.343C172.354 134.349 173.075 134.381 173.075 135.396C173.075 136.643 174.063 136.939 176.491 136.423C177.573 136.192 178.83 135.971 179.285 135.929C180.004 135.863 180.113 135.745 180.113 135.025V134.197H178.043C176.051 134.197 175.951 134.165 175.413 133.369C175.107 132.913 174.578 132.418 174.241 132.269C173.49 131.936 173.479 131.794 174.154 131.183C174.59 130.788 174.792 130.762 175.294 131.03C175.887 131.346 176.369 131.068 176.382 130.402C176.39 130.023 177.01 130.187 177.356 130.659C177.916 131.426 182.569 130.626 182.334 129.803C182.243 129.487 182.097 128.902 182.01 128.501C181.811 127.595 181.009 127.218 178.406 126.804C176.773 126.544 176.352 126.375 176.215 125.923C175.91 124.916 174.674 123.519 173.745 123.13C172.944 122.796 172.811 122.59 172.652 121.434C172.263 118.609 171.669 117.291 171.279 118.395ZM154.58 122.994C152.165 123.251 152.122 124.674 154.514 125.169C157.926 125.873 158.721 125.626 158.721 123.861C158.721 123.124 157.586 122.607 156.374 122.791C156.223 122.814 155.415 122.905 154.58 122.994ZM166.453 125.02C166.468 126.209 167.238 127.776 168.05 128.269C168.835 128.746 168.934 128.947 168.934 130.053C168.934 131.257 168.962 131.298 169.772 131.298H170.612L170.531 128.884L170.451 126.469L169.279 126.383C168.55 126.332 168.106 126.164 168.106 125.944C168.106 125.515 167.223 124.674 166.773 124.674C166.596 124.674 166.452 124.829 166.453 125.02ZM132.618 127.324C133.1 129.24 134.319 129.987 135.95 129.366C137.146 128.912 136.69 128.246 134.595 127.387C132.288 126.441 132.397 126.446 132.618 127.324ZM87.7255 133.148C88.1048 134.384 88.0551 134.448 86.8875 134.23C86.0131 134.066 85.0674 132.726 85.5112 132.281C86.1273 131.664 87.4274 132.175 87.7255 133.148ZM91.8097 136.474C91.962 138.17 91.914 138.432 91.2714 139.369C90.1452 141.009 91.3989 143.948 93.0799 143.614C93.5271 143.523 93.9246 143.599 94.0521 143.798C94.4032 144.346 96.8345 145.457 97.2949 145.28C97.5466 145.184 97.7189 144.78 97.7189 144.284C97.7189 143.591 97.8828 143.384 98.7076 143.039C99.9017 142.539 99.857 141.264 98.6082 140.217L97.8861 139.611L97.4025 140.406C96.9686 141.121 96.119 141.789 95.642 141.789C95.5427 141.789 95.5443 141.3 95.6453 140.704C95.8076 139.743 95.748 139.568 95.117 139.154C94.5605 138.789 94.4065 138.461 94.4065 137.648C94.4065 136.785 94.2177 136.438 93.3019 135.609C91.7583 134.217 91.6142 134.299 91.8097 136.474ZM168.106 141.789C168.106 142.748 167.46 142.921 167.011 142.082C166.564 141.249 166.669 140.961 167.415 140.961C167.998 140.961 168.106 141.088 168.106 141.789ZM163.56 142.188C164.656 142.647 164.656 142.65 164.106 143.715C163.47 144.944 162.72 145.026 161.824 143.968C160.69 142.627 160.395 142.223 160.385 141.996C160.37 141.636 162.56 141.77 163.56 142.188ZM176.11 144.703C176.11 145.818 175.769 145.758 175.135 144.531C174.724 143.738 174.731 143.72 175.413 143.72C176.028 143.72 176.11 143.836 176.11 144.703ZM173.316 146.047C173.699 147.564 173.722 149.793 173.356 149.793C173.051 149.793 172.909 149.279 172.556 146.903C172.172 144.326 172.727 143.703 173.316 146.047ZM153.732 146.103C154.708 147.345 154.484 148.188 153.487 147.022C152.669 146.065 152.425 145.376 152.904 145.376C153.045 145.376 153.418 145.704 153.732 146.103ZM165.622 146.744C165.622 148.052 164.259 149.074 163.51 148.327C163.222 148.037 164.009 146.206 164.6 145.792C165.504 145.157 165.622 145.267 165.622 146.744ZM101.356 147.516C101.22 147.781 100.831 149.043 100.493 150.32C100.153 151.595 99.8123 152.805 99.7344 153.011C99.5059 153.605 100.672 153.453 101.109 152.83C101.574 152.166 101.859 152.382 101.859 153.395C101.859 154.051 102.012 154.182 103.085 154.452C103.759 154.622 104.388 154.887 104.484 155.041C104.632 155.281 106.392 156.141 106.735 156.141C106.798 156.141 106.535 155.603 106.149 154.944C105.645 154.084 105.44 153.326 105.425 152.252C105.412 151.431 105.188 149.889 104.927 148.827L104.451 146.895L103.805 149.034C103.004 151.686 102.84 151.694 102.263 149.102C101.765 146.863 101.725 146.792 101.356 147.516ZM160.928 148.551V150.069H159.805C158.866 150.069 158.707 149.99 158.827 149.586C158.906 149.321 159.048 148.776 159.143 148.377C159.292 147.748 160.05 147.112 160.721 147.052C160.836 147.04 160.928 147.716 160.928 148.551ZM170.539 147.774C170.474 148.319 170.246 148.569 169.67 148.721C169.004 148.899 168.916 148.86 169.08 148.465C169.186 148.208 169.335 147.781 169.411 147.516C169.651 146.679 170.642 146.906 170.539 147.774ZM95.1087 148.854C94.6169 149.346 93.7805 151.191 93.9643 151.376C94.3999 151.812 96.3343 149.677 96.3376 148.758C96.3393 148.273 95.6337 148.329 95.1087 148.854ZM166.94 151.537C166.635 152.991 166.556 153.105 165.84 153.105C164.524 153.105 164.877 150.792 166.283 150.2C167.362 149.747 167.329 149.68 166.94 151.537ZM75.2562 151.548C74.9614 152.726 74.7279 156.89 74.9167 157.638C75.2115 158.817 79.3139 158.63 79.4513 157.431C79.5192 156.848 79.6517 156.692 79.9813 156.818C81.553 157.423 83.6729 157.33 83.5321 156.666C83.4559 156.302 83.3118 155.144 83.2141 154.092C82.9243 150.999 82.3082 150.826 81.2698 153.547C80.7183 154.988 80.5179 154.909 79.5788 152.873L78.8584 151.312L78.6481 152.554C78.5321 153.236 78.4278 154.331 78.4162 154.985C78.3914 156.5 78.0386 156.278 77.2884 154.273C76.0363 150.921 75.5709 150.295 75.2562 151.548ZM170.981 151.065C171.597 151.302 171.524 151.726 170.865 151.726C170.562 151.726 170.314 151.799 170.314 151.888C170.314 151.979 170.562 152.368 170.865 152.754C171.745 153.872 171.599 154.485 170.451 154.485C169.494 154.485 168.951 152.628 169.693 151.886C169.807 151.772 169.915 151.565 169.935 151.426C169.999 150.954 170.037 150.898 170.291 150.898C170.431 150.898 170.741 150.972 170.981 151.065ZM121.457 154.099C121.457 155.8 123.017 156.694 125.983 156.694C129.105 156.694 129.072 156.736 127.035 155.353C126.157 154.756 125.271 154.067 125.069 153.824C124.375 152.988 121.457 153.21 121.457 154.099ZM135.258 155.295C135.258 155.912 135.352 156.421 135.465 156.426C136.857 156.484 140.17 157.09 141.495 157.531C143.697 158.264 146.899 157.656 146.486 156.583C146.043 155.429 143.206 154.664 138.225 154.356L135.258 154.172V155.295ZM147.825 156.033C147.934 157.08 148.043 157.959 148.066 157.991C148.552 158.597 153.181 158.324 153.704 157.658C154.368 156.813 154.491 155.901 153.959 155.75C153.769 155.695 152.558 155.394 151.268 155.081C149.978 154.768 148.63 154.427 148.275 154.323L147.628 154.132L147.825 156.033ZM132.762 158.372C132.171 159.478 132.588 159.738 134.155 159.238L135.567 158.786L136.261 159.672C137.182 160.849 137.467 160.79 137.467 159.419C137.467 158.284 137.462 158.279 136.563 158.425C136.008 158.514 135.453 158.422 135.13 158.185C134.332 157.602 133.123 157.696 132.762 158.372ZM169.648 158.917C168.214 159.341 165.342 162.855 165.94 163.453C166.42 163.933 169.57 162.885 169.822 162.16C170.049 161.512 170.248 161.386 171.056 161.386H172.018L171.824 160.214C171.718 159.568 171.614 159.024 171.594 159.005C171.347 158.778 170.282 158.73 169.648 158.917ZM161.389 161.87C161.134 163.198 160.927 164.377 160.927 164.491C160.928 164.606 161.425 164.698 162.033 164.698H163.138V162.077C163.138 159.515 163.123 159.453 162.493 159.453C161.905 159.453 161.813 159.657 161.389 161.87ZM146.379 161.663C146.256 162.133 146.003 162.214 144.666 162.214C143.803 162.214 142.954 162.358 142.778 162.532C142.538 162.774 142.225 162.673 141.5 162.118C140.875 161.643 140.195 161.386 139.555 161.386C136.485 161.386 141.228 163.996 147.016 165.492C149.777 166.206 153.475 166.644 153.475 166.259C153.475 165.637 152.75 164.422 152.204 164.13C151.821 163.925 151.071 163.162 150.536 162.434C149.408 160.896 146.71 160.396 146.379 161.663ZM154.029 165.112C154.029 166.353 154.03 166.355 155.012 166.355C155.816 166.355 155.973 166.265 155.867 165.871C155.794 165.606 155.66 165.046 155.567 164.629C155.248 163.195 154.029 163.577 154.029 165.112ZM72.4855 177.416C71.8627 178.829 71.3758 179.019 70.4981 178.193L69.8025 177.542L70.0178 179.056C70.5842 183.067 70.0227 183.231 67.9078 179.675C66.3278 177.019 65.9751 176.673 65.9751 177.776C65.9751 178.991 65.2927 179.223 63.7011 178.551C61.9737 177.82 61.9671 177.829 62.6809 179.443C63.3732 181.007 63.2573 181.436 62.0549 181.759L61.144 182.004L62.8929 183.08C67.4573 185.894 67.7091 186.477 64.1334 185.96C61.6127 185.596 61.6541 185.588 62.3381 186.315C63.1993 187.232 63.095 187.54 61.6972 188.219C60.2066 188.943 60.1801 189.054 61.3941 189.493C62.8151 190.008 63.1049 190.488 62.5236 191.374L62.045 192.106L63.2507 191.921C66.9787 191.346 68.6332 191.373 69.0837 192.014C69.511 192.625 69.5193 192.618 70.508 191.075C71.8859 188.92 72.0814 188.905 74.0025 190.805C75.5461 192.333 75.6603 192.395 76.1092 191.946C76.558 191.499 76.495 191.383 74.9681 189.839C73.032 187.883 73.4079 186.903 76.6027 185.573C76.7534 185.51 76.5828 185.24 76.2201 184.973C75.5245 184.462 75.5063 183.637 76.0893 179.226L76.2665 177.883L75.5361 178.362C74.6517 178.941 74.1698 178.652 73.6564 177.231C73.2225 176.028 73.0883 176.05 72.4855 177.416ZM179.471 177.231C178.956 178.652 178.475 178.941 177.591 178.362L176.859 177.883L177.048 179.226C177.622 183.354 177.596 184.466 176.904 184.977C176.534 185.247 176.382 185.51 176.556 185.578C179.676 186.793 180.088 187.89 178.159 189.839C176.63 191.383 176.569 191.499 177.018 191.946C177.465 192.395 177.581 192.333 179.125 190.805C181.074 188.875 182.17 189.288 183.386 192.408C183.454 192.58 183.717 192.428 183.99 192.058C184.497 191.368 186.056 191.333 189.876 191.921L191.082 192.106L190.602 191.374C190.022 190.488 190.31 190.008 191.733 189.493C192.947 189.054 192.921 188.943 191.43 188.219C190.026 187.537 189.926 187.232 190.806 186.297L191.422 185.641L189.908 185.854C185.912 186.419 185.753 185.891 189.28 183.761C191.837 182.217 192.266 181.812 191.345 181.812C190.011 181.812 189.731 181.154 190.395 179.579C191.145 177.805 191.119 177.771 189.56 178.527C188.088 179.245 187.477 179.092 187.25 177.954C187.011 176.765 186.907 176.853 185.219 179.682C183.103 183.229 182.543 183.064 183.109 179.056L183.323 177.542L182.667 178.158C181.731 179.038 181.427 178.938 180.744 177.534C180.021 176.043 179.91 176.017 179.471 177.231ZM101.215 195.521C100.745 195.992 101.126 196.616 102.138 197.042C103.557 197.638 103.555 197.8 102.103 204.241C99.8388 214.286 101.243 217.358 108.343 217.895C113.395 218.277 114.627 216.757 116.654 207.635C118.072 201.257 118.227 200.924 119.865 200.805C120.826 200.735 121.058 200.611 121.127 200.129C121.217 199.504 115.374 197.83 114.405 198.203C113.663 198.488 113.968 199.359 114.978 199.841C116.366 200.502 116.371 200.604 115.251 205.884C113.358 214.827 112.5 216.316 109.246 216.316C104.474 216.316 103.653 213.564 105.702 204.456C106.959 198.87 107.209 198.373 108.784 198.373C109.726 198.373 110.546 197.583 110.082 197.121C109.665 196.704 101.505 195.232 101.215 195.521ZM141.412 197.325C141.255 197.522 140.917 199.112 140.658 200.858C138.525 215.323 138.257 216.641 137.29 217.401C136.665 217.891 136.41 218.905 136.846 219.17C137.02 219.276 140.039 218.701 142.359 218.118C143.487 217.837 143.095 216.777 141.785 216.565C141.2 216.47 140.615 216.222 140.484 216.012C140.175 215.51 140.483 212.398 140.882 212.012C141.154 211.749 146.47 210.51 147.295 210.516C147.464 210.518 148.073 211.283 148.648 212.216C149.794 214.07 149.759 214.496 148.413 215.157C147.584 215.564 147.353 216.868 148.11 216.868C148.457 216.868 152.228 216.074 155.302 215.356C156.243 215.137 155.859 213.935 154.779 213.719C153.572 213.478 153.131 212.997 150.978 209.562C142.699 196.361 142.44 196.03 141.412 197.325ZM144.474 205.422C145.672 207.323 146.602 208.915 146.544 208.958C146.485 209.001 145.443 209.254 144.229 209.523C143.015 209.791 141.785 210.077 141.496 210.159C140.915 210.323 140.915 210.356 141.655 204.516C142.056 201.351 141.874 201.291 144.474 205.422ZM121.871 205.198C119.425 205.823 118.26 209.15 119.552 211.82C120.907 214.617 124.86 214.559 126.044 211.724C127.497 208.249 125.031 204.392 121.871 205.198ZM127.391 205.553C127.296 205.705 127.444 205.914 127.719 206.015C128.537 206.318 128.625 206.662 128.625 209.552C128.625 212.444 128.537 212.789 127.719 213.09C126.722 213.459 127.604 213.832 129.478 213.832C131.379 213.832 132.344 213.176 130.773 212.954C129.91 212.832 129.643 209.692 130.496 209.692C131.145 209.692 131.67 210.21 131.67 210.851C131.67 211.124 131.856 211.348 132.084 211.348C132.412 211.348 132.498 210.95 132.498 209.432C132.498 207.322 132.177 206.787 131.616 207.961C130.93 209.393 129.966 209.153 130.067 207.573L130.152 206.24L131.314 206.156C132.702 206.056 133.537 206.447 133.885 207.361C134.579 209.185 135.181 207.62 134.555 205.619C134.42 205.187 127.656 205.124 127.391 205.553ZM124.105 206.407C124.84 207.219 125.016 210.899 124.378 212.131C123.507 213.815 121.439 213.559 120.923 211.706C119.83 207.774 122.03 204.114 124.105 206.407Z" fill="#004990"/>
</svg>
